<svg xmlns="http://www.w3.org/2000/svg" viewBox="0 0 400 300">
<rect width="400" height="300" fill="#f6d79b"/>
<g fill="none" stroke="#fff" stroke-opacity=".18" stroke-width="2"><circle cx="20" cy="60" r="3"/><circle cx="20" cy="140" r="3"/><circle cx="20" cy="220" r="3"/><circle cx="60" cy="20" r="3"/><circle cx="60" cy="100" r="3"/><circle cx="60" cy="180" r="3"/><circle cx="60" cy="260" r="3"/><circle cx="100" cy="60" r="3"/><circle cx="100" cy="140" r="3"/><circle cx="100" cy="220" r="3"/><circle cx="140" cy="20" r="3"/><circle cx="140" cy="100" r="3"/><circle cx="140" cy="180" r="3"/><circle cx="140" cy="260" r="3"/><circle cx="180" cy="60" r="3"/><circle cx="180" cy="140" r="3"/><circle cx="180" cy="220" r="3"/><circle cx="220" cy="20" r="3"/><circle cx="220" cy="100" r="3"/><circle cx="220" cy="180" r="3"/><circle cx="220" cy="260" r="3"/><circle cx="260" cy="60" r="3"/><circle cx="260" cy="140" r="3"/><circle cx="260" cy="220" r="3"/><circle cx="300" cy="20" r="3"/><circle cx="300" cy="100" r="3"/><circle cx="300" cy="180" r="3"/><circle cx="300" cy="260" r="3"/><circle cx="340" cy="60" r="3"/><circle cx="340" cy="140" r="3"/><circle cx="340" cy="220" r="3"/><circle cx="380" cy="20" r="3"/><circle cx="380" cy="100" r="3"/><circle cx="380" cy="180" r="3"/><circle cx="380" cy="260" r="3"/></g>
<ellipse cx="200" cy="165" rx="150" ry="112" fill="#000" opacity=".12"/><ellipse cx="200" cy="155" rx="150" ry="112" fill="#fff"/><ellipse cx="200" cy="155" rx="118" ry="86" fill="#f4f1ec"/><ellipse cx="150" cy="175" rx="58" ry="40" fill="none" stroke="#c98a2c" stroke-width="22"/><ellipse cx="150" cy="175" rx="58" ry="40" fill="none" stroke="#e8b04d" stroke-width="10" stroke-dasharray="6 9"/><ellipse cx="250" cy="175" rx="58" ry="40" fill="none" stroke="#c98a2c" stroke-width="22"/><ellipse cx="250" cy="175" rx="58" ry="40" fill="none" stroke="#e8b04d" stroke-width="10" stroke-dasharray="6 9"/><ellipse cx="200" cy="130" rx="58" ry="40" fill="none" stroke="#c98a2c" stroke-width="22"/><ellipse cx="200" cy="130" rx="58" ry="40" fill="none" stroke="#e8b04d" stroke-width="10" stroke-dasharray="6 9"/>
</svg>
