<svg xmlns="http://www.w3.org/2000/svg" viewBox="0 0 400 300">
<rect width="400" height="300" fill="#f7c6d9"/>
<g fill="none" stroke="#fff" stroke-opacity=".18" stroke-width="2"><circle cx="20" cy="60" r="3"/><circle cx="20" cy="140" r="3"/><circle cx="20" cy="220" r="3"/><circle cx="60" cy="20" r="3"/><circle cx="60" cy="100" r="3"/><circle cx="60" cy="180" r="3"/><circle cx="60" cy="260" r="3"/><circle cx="100" cy="60" r="3"/><circle cx="100" cy="140" r="3"/><circle cx="100" cy="220" r="3"/><circle cx="140" cy="20" r="3"/><circle cx="140" cy="100" r="3"/><circle cx="140" cy="180" r="3"/><circle cx="140" cy="260" r="3"/><circle cx="180" cy="60" r="3"/><circle cx="180" cy="140" r="3"/><circle cx="180" cy="220" r="3"/><circle cx="220" cy="20" r="3"/><circle cx="220" cy="100" r="3"/><circle cx="220" cy="180" r="3"/><circle cx="220" cy="260" r="3"/><circle cx="260" cy="60" r="3"/><circle cx="260" cy="140" r="3"/><circle cx="260" cy="220" r="3"/><circle cx="300" cy="20" r="3"/><circle cx="300" cy="100" r="3"/><circle cx="300" cy="180" r="3"/><circle cx="300" cy="260" r="3"/><circle cx="340" cy="60" r="3"/><circle cx="340" cy="140" r="3"/><circle cx="340" cy="220" r="3"/><circle cx="380" cy="20" r="3"/><circle cx="380" cy="100" r="3"/><circle cx="380" cy="180" r="3"/><circle cx="380" cy="260" r="3"/></g>

<ellipse cx="200" cy="270" rx="70" ry="11" fill="#000" opacity=".12"/>
<rect x="232" y="10" width="14" height="120" rx="6" fill="#e63946" transform="rotate(14 239 70)"/>
<path d="M140 110 L260 110 L245 265 L155 265 Z" fill="#f48fb1"/>
<path d="M140 110 L260 110 L257 140 L143 140 Z" fill="#fff" opacity=".35"/>
<circle cx="165" cy="100" r="30" fill="#fffaf0"/><circle cx="200" cy="85" r="36" fill="#fffaf0"/><circle cx="236" cy="100" r="30" fill="#fffaf0"/>
<circle cx="206" cy="48" r="14" fill="#c1121f"/><path d="M206 36 q8 -20 22 -24" stroke="#4a7c2a" stroke-width="3" fill="none"/>
</svg>
